<mxfile host="65bd71144e">
    <diagram id="AYONEgX2R_N-mYd7pni_" name="Page-1">
        <mxGraphModel dx="959" dy="580" grid="1" gridSize="15" guides="1" tooltips="1" connect="1" arrows="1" fold="1" page="0" pageScale="1" pageWidth="1100" pageHeight="850" background="#ffffff" math="0" shadow="0">
            <root>
                <mxCell id="0"/>
                <mxCell id="1" parent="0"/>
                <mxCell id="4" value="" style="edgeStyle=none;hachureGap=4;html=1;fontFamily=Architects Daughter;fontSource=https%3A%2F%2Ffonts.googleapis.com%2Fcss%3Ffamily%3DArchitects%2BDaughter;fontSize=16;rounded=0;strokeColor=#001DBC;endArrow=none;endFill=0;" edge="1" parent="1" source="2" target="3">
                    <mxGeometry relative="1" as="geometry"/>
                </mxCell>
                <mxCell id="2" value="&lt;font color=&quot;#000000&quot;&gt;Spk1&lt;/font&gt;" style="whiteSpace=wrap;html=1;hachureGap=4;fontFamily=Architects Daughter;fontSource=https%3A%2F%2Ffonts.googleapis.com%2Fcss%3Ffamily%3DArchitects%2BDaughter;fontSize=20;fillColor=#dae8fc;strokeColor=#6c8ebf;shadow=0;gradientDirection=north;gradientColor=#7ea6e0;" vertex="1" parent="1">
                    <mxGeometry x="705" y="90" width="120" height="70" as="geometry"/>
                </mxCell>
                <mxCell id="9" value="" style="edgeStyle=none;sketch=0;hachureGap=4;jiggle=2;curveFitting=1;html=1;strokeColor=#000000;fontFamily=Architects Daughter;fontSource=https%3A%2F%2Ffonts.googleapis.com%2Fcss%3Ffamily%3DArchitects%2BDaughter;fontSize=16;fontColor=#001DBC;endArrow=none;endFill=0;" edge="1" parent="1" source="3" target="8">
                    <mxGeometry relative="1" as="geometry"/>
                </mxCell>
                <mxCell id="3" value="&lt;font color=&quot;#000000&quot;&gt;&lt;br&gt;Secured-vHub&lt;/font&gt;" style="ellipse;whiteSpace=wrap;html=1;fontSize=20;fontFamily=Architects Daughter;fillColor=#f8cecc;strokeColor=#b85450;hachureGap=4;fontSource=https%3A%2F%2Ffonts.googleapis.com%2Fcss%3Ffamily%3DArchitects%2BDaughter;gradientColor=#ea6b66;" vertex="1" parent="1">
                    <mxGeometry x="600" y="180" width="145" height="125" as="geometry"/>
                </mxCell>
                <mxCell id="7" value="" style="sketch=0;pointerEvents=1;shadow=0;dashed=0;html=1;strokeColor=none;fillColor=#505050;labelPosition=center;verticalLabelPosition=bottom;verticalAlign=top;outlineConnect=0;align=center;shape=mxgraph.office.devices.laptop;hachureGap=4;jiggle=2;curveFitting=1;fontFamily=Architects Daughter;fontSource=https%3A%2F%2Ffonts.googleapis.com%2Fcss%3Ffamily%3DArchitects%2BDaughter;fontSize=20;" vertex="1" parent="1">
                    <mxGeometry x="420" y="227.5" width="45" height="30" as="geometry"/>
                </mxCell>
                <mxCell id="8" value="&lt;font color=&quot;#000000&quot;&gt;On-premises&lt;/font&gt;" style="whiteSpace=wrap;html=1;hachureGap=4;fontFamily=Architects Daughter;fontSource=https%3A%2F%2Ffonts.googleapis.com%2Fcss%3Ffamily%3DArchitects%2BDaughter;fontSize=20;fillColor=#f5f5f5;strokeColor=#666666;shadow=0;gradientDirection=north;gradientColor=#b3b3b3;" vertex="1" parent="1">
                    <mxGeometry x="612" y="360" width="120" height="70" as="geometry"/>
                </mxCell>
                <mxCell id="11" value="" style="shape=image;verticalLabelPosition=bottom;labelBackgroundColor=default;verticalAlign=top;aspect=fixed;imageAspect=0;image=data:image/svg+xml,PHN2ZyB4bWxuczp4bGluaz0iaHR0cDovL3d3dy53My5vcmcvMTk5OS94bGluayIgeG1sbnM9Imh0dHA6Ly93d3cudzMub3JnLzIwMDAvc3ZnIiBkYXRhLXR5cGU9IjEiIGlkPSJGeFN5bWJvbDAtMDRkIiByb2xlPSJwcmVzZW50YXRpb24iIGNsYXNzPSIiIHZpZXdCb3g9IjAgMCAzNCAzNCI+PGc+PHRpdGxlLz48ZyBjbGlwLXBhdGg9InVybCgjZDU1YTkzMGItY2NlMy00YWU3LTg1MGItOTBlZWNkODFiMDQyKSI+PHBhdGggZD0iTTI3LjAxMSA4LjAwOWEyLjQ3NCAyLjQ3NCAwIDAgMS0xLjAyLTEuMDAxbC00LjYyOCA0LjY2NWgyLjAwM0wyNy4wMSA4LjAxek0xNy43NTYgNS40NGMtLjI0Ni4wNy0uNS4xMDgtLjc1Ni4xMTNhMy4xNTQgMy4xNTQgMCAwIDEtLjcxOC0uMTEzdjYuMjMzaDEuNDc0VjUuNDR6TTguMDA5IDcuMDA4YTIuNjgyIDIuNjgyIDAgMCAxLTEuMDAxIDFsMy42NjQgMy42NjVoMi4wMjFMOC4wMSA3LjAwOHpNMTYuMzIgMjguNTZjLjIyMi0uMDYzLjQ1LS4xLjY4LS4xMTMuMjQzLjAwOC40ODQuMDQ2LjcxOC4xMTN2LTYuMjMzSDE2LjMydjYuMjMzem0tOS4zMTItMi40OTNjLjQxNy4yMzguNzYzLjU4MyAxIDFsNC43NDItNC43NGgtMi4wMDJsLTMuNzQgMy43NHptMTkuOTg0IDBsLTMuNzc4LTMuNzc4SDIxLjI1bDQuNzQxIDQuNzQxYy4yNDktLjQuNTkzLS43MyAxLjAwMS0uOTYzeiIgZmlsbD0iIzY2NiIvPjxwYXRoIGZpbGw9IiNhMGExYTIiIGNsYXNzPSJtc3BvcnRhbGZ4LXN2Zy1jMDMiIGQ9Ik0xNy43NTYgNS40NGEyLjczOSAyLjczOSAwIDAgMCAyLjA1OC0yLjY2M0EyLjc3NyAyLjc3NyAwIDEgMCAxNi4zMiA1LjQ0Yy4yMjIuMDYzLjQ1LjEuNjguMTEzLjI1Ni0uMDA1LjUxLS4wNDMuNzU2LS4xMTN6TTguMDA5IDcuMDA4Yy4yNDYtLjQwNS4zODMtLjg2Ny4zOTctMS4zNDFhMi43NzcgMi43NzcgMCAxIDAtMi43NCAyLjcyIDIuNjUxIDIuNjUxIDAgMCAwIDIuMzQzLTEuMzc5ek0xNi4zMiAyOC41NmEyLjc3NyAyLjc3NyAwIDEgMCAxLjQzNiAwIDMgMyAwIDAgMC0uNzU2LS4xMTNjLS4yMy4wMTMtLjQ1OC4wNS0uNjguMTEzek0yNy4wMTEgOC4wMDljLjQxLjI1Ljg4LjM4IDEuMzYuMzc4YTIuNzc3IDIuNzc3IDAgMSAwLTIuNzc2LTIuNzJjLS4wMDIuNDk0LjEzNS45NzguMzk2IDEuMzk3LjI0My40MDYuNTk3LjczNCAxLjAyLjk0NXpNNy4wMDggMjYuMDY3YTIuNjY0IDIuNjY0IDAgMCAwLTEuMzQxLS4zOTcgMi43NzcgMi43NzcgMCAxIDAgMi43NzYgMi43NzcgMi42NjMgMi42NjMgMCAwIDAtLjM5Ni0xLjM4IDIuNjgyIDIuNjgyIDAgMCAwLTEuMDQtMXptMjEuMzI1LS4zOTdhMi42NSAyLjY1IDAgMCAwLTEuMzc5LjM5NyAyLjgzNCAyLjgzNCAwIDAgMC0xIDEgMi42NjMgMi42NjMgMCAwIDAtLjM5NyAxLjM4IDIuNzc3IDIuNzc3IDAgMSAwIDIuNzc2LTIuNzc3eiIvPjxwYXRoIGQ9Ik0yNi40NDQgMjIuMzI3YS43NzYuNzc2IDAgMCAwIC43OTQtLjc1NlYxMi40M2EuNzc2Ljc3NiAwIDAgMC0uNzk0LS43NTZINy41NTZhLjc3NS43NzUgMCAwIDAtLjc5NC43NTZ2OS4xNDJhLjc3NS43NzUgMCAwIDAgLjc5NC43NTZoMTguODg4em0tLjIwNy00LjE5NGgtMi4zMDVWMTUuODNoMi4zMDV2Mi4zMDR6bS01LjQ2LTUuNDAyaDUuNTM1djIuMzhoLTUuNTM0di0yLjM4em0yLjMwNSAzLjA5OHYyLjMwNGgtNS42MVYxNS44M2g1LjYxem0tOC43NDUtMy4wOThoNS41MzR2Mi4zOGgtNS41MzR2LTIuMzh6bTIuMzA0IDMuMDk4djIuMzA0aC01LjUzNFYxNS44M2g1LjUzNHptLTguNjctMy4wOThoNS41MzR2Mi4zOEg3Ljk3MXYtMi4zOHptMCAzLjA5OGgyLjI4NnYyLjMwNEg3Ljk3VjE1Ljgzem01LjUzNCA1LjQyMUg3Ljk3MXYtMi4zNjFoNS41MzR2Mi4zNjF6bTYuMzY2IDBoLTUuNTM0di0yLjM2MWg1LjUzNHYyLjM2MXptLjgzMSAwdi0yLjM2MWg1LjUzNXYyLjMyM2wtNS41MzUuMDM4eiIgZmlsbD0iIzgyMTAxMCIvPjxwYXRoIGQ9Ik0xMy41MDYgMTIuNzMxSDcuOTd2Mi4zMDVoNS41MzVWMTIuNzN6IiBmaWxsPSIjRTYyMzIzIi8+PHBhdGggZD0iTTE5Ljg3MSAxMi43MzFoLTUuNTM0djIuMzA1aDUuNTM0VjEyLjczeiIgZmlsbD0iI0ZGNzM4MSIvPjxwYXRoIGQ9Ik0yNi4yMzcgMTIuNzMxaC01LjUzNXYyLjMwNWg1LjUzNVYxMi43M3ptLTE1Ljk2MSAzLjA5OEg3Ljk3djIuMzA0aDIuMzA1VjE1LjgzeiIgZmlsbD0iI0U2MjMyMyIvPjxwYXRoIGQ9Ik0yNi4yMzcgMTUuODI5aC0yLjMwNXYyLjMwNGgyLjMwNVYxNS44M3ptLTkuNTk3IDBoLTUuNTM0djIuMzA0aDUuNTM1VjE1LjgzeiIgZmlsbD0iI0ZGNzM4MSIvPjxwYXRoIGQ9Ik0yMy4wMDcgMTUuODI5aC01LjUzNXYyLjMwNGg1LjUzNVYxNS44M3ptLTkuNTAxIDMuMDk4SDcuOTd2Mi4zMDRoNS41MzV2LTIuMzA0eiIgZmlsbD0iI0U2MjMyMyIvPjxwYXRoIGQ9Ik0xOS44NzEgMTguOTI3aC01LjUzNHYyLjMwNGg1LjUzNHYtMi4zMDR6IiBmaWxsPSIjRkY3MzgxIi8+PHBhdGggZD0iTTI2LjIzNyAxOC45MjdoLTUuNTM1djIuMzA0aDUuNTM1di0yLjMwNHoiIGZpbGw9IiNFNjIzMjMiLz48L2c+PGRlZnMvPjwvZz48ZGVmcz4KPGNsaXBQYXRoIGlkPSJkNTVhOTMwYi1jY2UzLTRhZTctODUwYi05MGVlY2Q4MWIwNDIiPjxwYXRoIGNsYXNzPSJtc3BvcnRhbGZ4LXN2Zy1jMDEiIGQ9Ik0wIDBoMzR2MzRIMHoiLz48L2NsaXBQYXRoPgo8L2RlZnM+Cjwvc3ZnPg==;" vertex="1" parent="1">
                    <mxGeometry x="651.25" y="185" width="42.5" height="42.5" as="geometry"/>
                </mxCell>
            </root>
        </mxGraphModel>
    </diagram>
</mxfile>